<?xml version="1.0" standalone="no"?>
<!DOCTYPE svg PUBLIC "-//W3C//DTD SVG 20010904//EN"
 "http://www.w3.org/TR/2001/REC-SVG-20010904/DTD/svg10.dtd">
<svg version="1.0" xmlns="http://www.w3.org/2000/svg"
 width="512.000000pt" height="512.000000pt" viewBox="0 0 512.000000 512.000000"
 preserveAspectRatio="xMidYMid meet">

<g transform="translate(0.000000,512.000000) scale(0.100000,-0.100000)"
fill="#000000" stroke="none">
<path d="M2450 4474 c-167 -14 -375 -44 -420 -61 -8 -3 -19 -7 -25 -8 -215
-52 -636 -326 -731 -477 -14 -21 -29 -36 -33 -33 -5 2 -15 -3 -22 -13 -13 -15
-12 -16 4 -3 27 21 21 7 -33 -73 -28 -41 -77 -124 -111 -185 -59 -107 -110
-173 -96 -126 21 72 11 68 -28 -10 -86 -172 -141 -385 -152 -590 l-5 -110 70
69 c46 45 74 66 83 61 7 -5 10 -4 5 3 -6 11 100 30 110 19 3 -3 12 -27 19 -54
10 -37 22 -38 16 -1 0 4 21 10 47 13 26 4 103 18 172 31 69 14 165 29 215 34
307 32 622 76 637 89 14 12 -21 126 -44 144 -158 127 -219 185 -229 219 -7 22
-20 38 -31 41 -29 8 -19 42 12 42 22 0 26 -5 32 -50 7 -55 11 -59 175 -196 75
-63 82 -73 92 -119 6 -28 11 -58 11 -66 0 -10 6 -14 18 -10 9 2 43 7 75 11 54
6 58 8 53 29 -3 12 -10 44 -16 72 -11 50 -15 55 -152 170 -90 76 -146 130
-154 150 -8 19 -52 65 -105 110 l-92 78 -29 -35 c-17 -18 -52 -65 -80 -104
l-49 -70 31 -8 c18 -4 35 -18 42 -32 6 -13 41 -47 77 -74 36 -27 86 -68 111
-91 30 -28 16 -20 -43 24 -87 65 -127 91 -130 84 -25 -49 -69 -62 -114 -32
-25 16 -27 16 -40 -2 -7 -10 -21 -43 -30 -74 -9 -30 -20 -60 -25 -66 -11 -15
-68 -5 -68 13 0 8 -5 11 -10 8 -6 -4 -7 -12 -3 -18 3 -7 -4 -3 -18 8 -13 11
-18 13 -11 5 17 -19 15 -29 -5 -28 -10 1 -34 -2 -53 -5 -19 -4 -28 -4 -19 1
13 6 10 10 -17 23 l-32 16 9 -25 c7 -18 6 -23 -3 -19 -7 2 -12 9 -11 15 2 8
-5 9 -21 2 -13 -5 -32 -7 -42 -5 -11 2 -28 4 -39 5 -20 1 -20 1 -1 15 16 12
17 15 4 20 -13 5 -12 11 8 32 13 14 24 32 24 39 0 7 10 11 25 9 14 -1 25 2 25
8 0 5 12 7 26 4 20 -4 28 0 32 15 2 11 10 17 18 14 7 -3 16 -1 19 4 4 6 2 10
-4 10 -6 0 -8 7 -4 16 5 13 7 13 14 2 5 -7 9 -8 9 -3 0 6 5 2 11 -7 5 -10 16
-15 24 -12 8 4 15 1 15 -5 0 -6 5 -11 10 -11 18 0 10 17 -12 28 -16 7 -18 11
-7 11 8 1 26 -11 38 -26 16 -17 18 -24 8 -20 -9 3 -26 -3 -39 -13 l-23 -19 25
5 c20 5 22 4 10 -6 -13 -10 -13 -11 0 -7 8 2 23 0 33 -5 11 -5 17 -5 17 2 0 5
9 10 19 10 10 0 22 7 25 16 5 13 2 15 -16 11 -27 -7 -52 21 -36 40 8 10 6 13
-5 13 -9 0 -19 6 -23 13 -4 6 -4 9 1 5 4 -4 14 0 21 10 13 16 14 15 18 -20 1
-15 26 -23 26 -9 0 6 9 11 19 11 22 0 30 8 81 76 19 26 56 73 82 104 26 32 45
61 42 64 -2 3 -2 5 1 3 2 -2 31 22 62 53 32 31 81 71 108 89 l50 32 -40 -33
c-22 -18 -54 -46 -72 -63 l-32 -30 76 -63 c56 -45 79 -59 85 -50 12 18 38 -18
38 -51 0 -43 20 -65 161 -186 120 -102 138 -120 143 -153 14 -79 18 -91 33
-96 14 -6 222 19 248 29 6 2 -26 2 -70 1 -68 -3 -72 -3 -30 4 28 5 70 13 95
19 58 13 93 14 85 1 -3 -5 -20 -10 -37 -10 -17 0 -29 -2 -26 -5 7 -7 163 6
177 14 8 5 6 34 -6 99 l-16 91 41 53 40 53 -29 145 c-16 80 -34 155 -41 168
-9 17 -9 25 0 34 16 16 24 -10 58 -184 16 -82 33 -147 39 -145 9 3 49 -29 118
-96 l29 -28 -25 -32 c-13 -18 -29 -32 -35 -32 -6 0 -14 -4 -19 -9 -5 -5 -3 -6
5 -2 6 4 12 4 12 1 0 -8 -53 -79 -62 -83 -17 -8 -6 -22 17 -22 28 0 24 -4 114
121 38 53 100 136 138 185 37 48 79 108 93 133 30 54 56 62 89 27 l23 -25 -22
-36 c-26 -42 -53 -59 -81 -50 -14 5 -28 0 -45 -16 -34 -32 -30 -39 20 -39 25
0 47 -4 51 -10 3 -5 13 -6 21 -3 18 7 34 -12 34 -40 0 -10 -25 -49 -55 -88
-46 -57 -52 -69 -36 -69 29 0 191 196 191 230 0 51 56 69 84 28 36 -51 8 -101
-45 -81 -27 11 -30 9 -65 -39 -29 -39 -34 -52 -23 -58 11 -7 11 -12 -3 -27 -8
-10 -23 -33 -32 -50 l-17 -33 26 0 c14 0 39 10 55 22 29 21 29 23 14 46 -18
27 -6 49 21 38 13 -4 15 -13 10 -36 -6 -29 -6 -30 33 -30 42 0 272 37 280 45
3 3 -19 4 -48 2 l-52 -2 -50 80 c-27 44 -55 85 -61 90 -7 6 -30 33 -52 60 -53
66 -103 113 -199 182 -43 32 -99 77 -123 101 -24 23 -48 42 -53 42 -5 0 -18
-17 -29 -37 -11 -21 -20 -34 -21 -30 0 5 5 17 11 28 6 12 8 37 4 59 -6 35 -9
38 -25 28 -14 -9 -31 -6 -81 12 -35 13 -83 29 -107 36 l-43 13 7 -37 c3 -20
20 -107 36 -192 41 -218 42 -220 31 -220 -9 0 -34 127 -79 409 -13 85 -24 156
-24 158 0 9 -49 1 -67 -12 -21 -15 -22 -14 -26 17 -2 21 -4 11 -5 -24 -1 -39
2 -58 10 -58 9 0 9 -3 1 -11 -6 -6 -9 -19 -6 -28 4 -13 3 -14 -5 -2 -6 8 -16
53 -23 100 -7 47 -19 96 -27 109 -13 20 -13 22 1 16 8 -3 18 0 23 7 5 8 3 10
-5 4 -15 -8 8 35 23 47 5 3 -14 13 -44 22 -29 9 -58 20 -64 25 -6 5 -15 10
-21 10 -5 0 -11 11 -12 23 -1 13 0 17 3 11 3 -7 10 -13 15 -13 6 0 7 5 4 10
-3 6 5 10 19 10 14 0 28 5 31 11 4 6 13 8 20 5 7 -2 17 0 23 6 8 8 88 14 267
19 28 0 -71 47 -115 54 -19 3 -73 12 -120 19 -99 16 -236 25 -300 20z m201
-414 c20 -11 27 -56 9 -62 -7 -2 -3 -41 10 -111 15 -75 18 -112 11 -121 -7 -9
-2 -54 16 -147 31 -163 33 -184 13 -184 -11 0 -15 12 -16 40 -1 42 -27 187
-44 244 -7 27 -6 38 5 50 12 14 11 30 -6 121 -11 58 -25 109 -30 115 -16 16
-10 65 8 65 3 0 13 -5 24 -10z m-375 -265 c27 1 79 3 116 5 98 7 86 -13 -16
-26 -123 -17 -139 -22 -131 -42 3 -9 11 -38 16 -64 11 -49 29 -65 29 -26 0 57
37 -46 75 -211 13 -57 28 -108 32 -112 4 -4 56 -3 116 3 59 7 102 15 97 18 -6
4 15 6 47 4 48 -2 51 -1 18 4 -41 7 -37 21 8 27 12 1 31 6 41 11 16 6 18 4 14
-14 -5 -17 -2 -22 12 -22 39 0 29 -19 -12 -24 -202 -27 -340 -37 -352 -27 -8
7 -17 35 -21 64 -15 110 -34 161 -71 192 -29 24 -39 44 -55 105 -11 41 -24 79
-29 84 -5 5 -24 6 -43 2 -32 -6 -34 -8 -31 -44 1 -20 14 -86 28 -147 14 -60
26 -119 26 -129 0 -11 32 -50 73 -89 67 -65 37 -48 -45 25 -35 32 -37 39 -68
188 -18 85 -36 159 -41 165 -20 20 -9 43 24 50 73 15 70 11 64 79 l-6 61 18
-55 19 -55 48 0z m300 58 c-7 -17 62 -393 75 -409 10 -13 2 -24 -19 -24 -10 0
-12 7 -8 25 7 29 -69 388 -84 393 -11 4 -14 35 -4 45 12 11 46 -14 40 -30z
m430 -125 c23 -127 29 -145 41 -132 17 17 21 17 52 0 l24 -13 -27 -7 c-21 -5
-26 -12 -26 -36 0 -31 27 -73 42 -64 4 3 8 0 8 -7 0 -7 8 -5 20 6 12 11 18 25
15 36 -3 9 -1 20 5 24 5 3 10 20 10 36 0 17 6 32 15 36 19 7 55 -24 55 -47 0
-21 -19 -40 -35 -34 -7 3 -29 -21 -51 -56 -21 -33 -41 -60 -44 -60 -3 0 -23
17 -43 38 -34 35 -40 48 -52 123 -7 46 -21 124 -29 173 -14 77 -21 170 -11
141 2 -5 16 -76 31 -157z m-946 128 c0 -2 -7 -7 -16 -10 -8 -3 -12 -2 -9 4 6
10 25 14 25 6z m1026 -191 c-7 -27 -26 -35 -26 -10 0 16 22 46 29 39 2 -1 1
-15 -3 -29z m-558 -26 c-2 -6 -8 -10 -13 -10 -5 0 -11 4 -13 10 -2 6 4 11 13
11 9 0 15 -5 13 -11z m-74 -31 c9 -12 12 -24 7 -28 -10 -6 16 -160 30 -174 5
-5 12 -7 16 -3 4 4 1 13 -5 19 -7 7 -12 16 -12 20 0 4 9 -1 20 -12 29 -29 25
-42 -12 -38 -33 3 -33 4 -51 88 -10 46 -25 92 -34 102 -13 14 -13 20 -3 33 17
20 26 19 44 -7z m286 -194 c0 -8 -19 -13 -24 -6 -3 5 1 9 9 9 8 0 15 -2 15 -3z
m-44 -188 c9 -26 -6 -32 -94 -39 -42 -4 -98 -9 -124 -13 -41 -6 -48 -4 -48 10
0 30 23 44 65 40 34 -3 37 -2 15 6 -21 8 -17 9 20 6 25 -2 53 -1 62 2 10 4 36
7 58 7 31 0 42 -4 46 -19z m-684 -78 c65 -50 116 -93 114 -96 -3 -2 -56 35
-118 83 l-113 87 -70 -6 c-102 -9 -111 -13 -146 -67 -17 -27 -36 -49 -43 -49
-6 0 -74 -9 -151 -20 -77 -11 -151 -20 -166 -20 -15 0 -29 -7 -33 -15 -6 -18
-36 -9 -36 11 0 17 10 19 213 40 l168 18 39 52 c38 50 42 53 97 59 32 3 65 8
73 9 43 10 64 -1 172 -86z m-11 45 c13 -16 12 -17 -3 -4 -10 7 -18 15 -18 17
0 8 8 3 21 -13z m358 -3 c1 13 2 13 11 0 8 -12 10 -12 16 3 3 9 11 17 17 17 6
0 0 -11 -13 -25 -18 -19 -26 -22 -37 -14 -7 6 -13 19 -12 28 0 12 2 11 9 -4 6
-13 9 -15 9 -5z m-1074 -20 c-3 -5 -10 -10 -16 -10 -5 0 -9 5 -9 10 0 6 7 10
16 10 8 0 12 -4 9 -10z m1148 -67 c-7 -2 -21 -2 -30 0 -10 3 -4 5 12 5 17 0
24 -2 18 -5z m-361 -38 c16 -14 25 -25 20 -25 -5 0 -15 7 -22 15 -17 21 -25
20 -423 -25 -193 -22 -363 -42 -377 -43 -17 -1 -25 4 -28 18 -4 16 -2 17 11 7
11 -10 36 -10 113 -2 55 6 106 14 114 17 8 3 29 5 45 5 17 -1 134 11 260 27
127 16 236 29 244 30 7 0 26 -10 43 -24z"/>
<path d="M2291 3594 c0 -11 3 -14 6 -6 3 7 2 16 -1 19 -3 4 -6 -2 -5 -13z"/>
<path d="M3293 3388 c-16 -18 -35 -48 -41 -66 -6 -18 -21 -46 -32 -62 -20 -28
-20 -30 -3 -29 11 0 42 33 77 81 51 69 57 82 44 94 -12 12 -18 10 -45 -18z"/>
<path d="M2850 3380 c-21 -29 -21 -29 -1 -49 11 -11 27 -31 36 -45 22 -33 42
-33 77 1 l27 26 -51 49 c-28 26 -54 48 -59 48 -4 0 -17 -13 -29 -30z"/>
<path d="M1500 3366 c0 -3 9 -10 20 -16 11 -6 20 -8 20 -6 0 3 -9 10 -20 16
-11 6 -20 8 -20 6z"/>
<path d="M1546 3285 c-9 -26 -7 -32 5 -12 6 10 9 21 6 23 -2 3 -7 -2 -11 -11z"/>
<path d="M3823 3201 c-23 -14 -44 -29 -47 -32 -4 -3 20 -114 53 -245 58 -232
61 -240 96 -269 25 -22 37 -42 42 -68 5 -35 8 -38 32 -32 14 4 30 10 34 14 4
5 -13 84 -38 177 -26 93 -62 230 -80 304 -48 194 -41 183 -92 151z"/>
<path d="M3228 3215 c-3 -3 -44 -7 -92 -10 -48 -2 -92 -7 -98 -11 -7 -5 -8 -2
-4 7 4 8 -2 3 -13 -10 -12 -13 -21 -26 -21 -30 0 -4 51 -2 113 5 61 7 124 13
138 13 15 1 37 10 50 21 l24 19 -46 1 c-25 0 -48 -2 -51 -5z"/>
<path d="M3653 3068 c-1 -61 -7 -116 -12 -121 -6 -6 -2 -26 11 -56 11 -25 38
-116 60 -201 l40 -154 -21 -17 c-11 -9 -17 -19 -14 -23 10 -10 -16 -34 -44
-39 l-27 -5 25 19 c32 24 18 24 -31 -1 -41 -21 -89 -29 -60 -10 8 5 10 10 5
10 -6 0 -15 -4 -20 -9 -14 -14 -163 -61 -192 -61 -31 0 -65 18 -58 31 4 5 -6
9 -20 9 -16 0 -24 -4 -20 -10 4 -7 -2 -9 -19 -4 -15 3 -32 1 -40 -5 -18 -15
-56 -23 -56 -11 0 10 29 22 40 15 4 -3 6 3 4 12 -3 10 -20 28 -38 40 -45 29
-69 82 -107 240 l-34 134 -32 -6 c-31 -5 -33 -4 -43 35 -13 48 -8 60 26 60 28
0 30 16 13 86 l-11 44 -42 -24 c-22 -13 -77 -42 -122 -65 -103 -51 -117 -67
-72 -76 57 -13 107 -44 133 -83 23 -35 130 -400 120 -410 -2 -2 -15 -5 -28 -6
-14 0 -23 -4 -20 -8 2 -5 -1 -8 -7 -8 -6 0 -15 12 -21 27 l-10 26 -27 -25
c-15 -14 -37 -31 -49 -37 -30 -15 -119 -14 -151 3 -60 31 -104 105 -105 177
-1 54 20 92 61 113 22 11 153 36 192 36 16 0 -12 60 -37 80 -43 33 -107 23
-165 -25 -25 -22 -63 -37 -45 -18 4 3 -3 13 -14 21 -17 12 -20 22 -16 53 l5
39 -28 -20 c-16 -11 -45 -27 -64 -35 -27 -12 -36 -21 -36 -40 0 -13 23 -125
50 -249 55 -246 60 -307 31 -364 -30 -59 -143 -154 -226 -191 -35 -16 -154
-15 -203 0 -18 6 -51 28 -73 49 -37 35 -39 40 -29 66 6 16 11 31 10 34 -2 8
179 110 195 110 8 0 35 -16 61 -35 64 -49 112 -49 161 0 34 34 35 38 30 88 -3
29 -10 65 -16 81 l-12 29 -22 -21 c-35 -33 -93 -54 -132 -46 -19 3 -54 19 -79
34 -35 23 -52 44 -81 104 -32 65 -38 87 -42 163 -4 73 -2 96 15 134 l20 45
-42 -20 c-22 -11 -43 -22 -46 -25 -9 -10 -45 -31 -62 -37 -22 -8 -22 -6 3 -56
28 -54 50 -131 41 -140 -6 -6 -266 -48 -299 -48 -37 0 6 -78 57 -105 54 -28
103 -18 162 31 l28 22 40 -21 c22 -12 40 -27 40 -33 0 -35 -98 -124 -207 -188
-80 -47 -171 -59 -234 -31 -27 13 -38 23 -34 33 3 8 -9 3 -27 -12 -90 -73
-116 -82 -300 -100 -187 -19 -268 -33 -268 -47 0 -5 4 -9 9 -9 5 0 19 -26 31
-57 230 -581 822 -1077 1436 -1202 289 -59 576 -44 844 45 102 34 325 137 336
156 4 5 -8 3 -24 -6 -36 -18 -46 -20 -37 -6 4 7 -2 7 -18 1 -14 -6 -45 -13
-68 -16 -24 -4 -64 -10 -89 -15 -51 -9 -246 -6 -272 5 -10 4 -15 11 -12 16 5
8 -17 14 -39 10 -4 -1 -28 4 -55 10 -26 6 -51 12 -57 13 -43 8 -73 33 -86 70
-8 23 -20 40 -26 39 -6 -1 -10 8 -9 22 0 13 3 21 5 19 2 -2 13 10 23 27 18 29
16 55 -3 44 -5 -4 -9 13 -9 38 0 33 -5 49 -22 63 -16 13 -19 14 -10 2 8 -10 9
-18 3 -22 -10 -6 -7 -80 5 -121 l6 -20 -16 20 c-8 11 -16 27 -16 35 0 9 -9 24
-21 34 -13 11 -19 25 -16 37 3 10 1 19 -5 19 -5 0 -6 10 -3 22 6 17 4 20 -9
15 -9 -4 -16 -2 -16 3 0 6 7 10 16 10 10 0 14 6 10 18 -3 9 -8 39 -12 66 -4
31 -16 60 -33 80 -24 27 -32 57 -64 236 -20 113 -37 216 -37 229 0 13 24 56
56 97 35 46 53 78 48 86 -5 10 -4 10 6 1 10 -9 2 -27 -40 -90 -60 -91 -60 -64
-6 -346 25 -134 39 -183 54 -200 13 -14 26 -50 34 -97 l14 -75 37 -3 c20 -2
37 0 37 5 0 11 -51 287 -94 517 l-36 188 31 52 c18 28 32 56 32 63 0 7 3 11 6
9 3 -2 40 2 81 9 61 11 80 11 100 0 41 -21 57 -47 70 -107 10 -51 18 -63 64
-105 l53 -48 28 -130 c16 -77 37 -147 51 -172 20 -34 23 -47 14 -63 -13 -24
-33 -26 -54 -4 -18 17 -21 45 -7 59 4 6 -4 73 -20 154 l-28 143 -55 52 c-49
46 -56 56 -62 104 -4 36 -15 64 -32 84 -26 30 -27 31 -98 25 -39 -4 -77 -9
-85 -12 -8 -3 -27 -30 -43 -59 l-30 -55 54 -273 c80 -414 85 -433 93 -430 4 1
46 2 93 2 l86 0 -5 28 c-3 17 0 33 10 44 15 16 13 34 -20 205 -62 320 -87 437
-97 447 -4 4 -24 6 -43 2 -53 -10 -63 -44 -44 -143 9 -43 28 -143 43 -223 16
-86 32 -148 40 -153 21 -12 17 -55 -5 -67 -35 -18 -69 38 -41 66 8 8 -2 82
-31 241 l-42 230 22 32 c20 27 28 31 71 31 49 0 49 -1 59 -37 38 -153 75 -322
100 -460 28 -151 45 -203 63 -203 14 0 144 51 231 91 49 23 91 39 94 36 2 -3
-9 -13 -25 -21 -17 -9 -34 -21 -38 -28 -9 -14 76 34 142 81 l47 33 -34 26
c-19 15 -68 57 -109 93 -146 128 -135 112 -155 229 -19 103 -20 105 -64 145
-83 73 -91 84 -91 112 0 15 -2 39 -5 53 -3 14 2 4 11 -22 11 -36 30 -60 84
-108 39 -34 70 -66 70 -71 0 -13 44 -55 118 -113 60 -47 78 -76 47 -76 -8 0
-15 5 -15 11 0 6 -32 42 -71 79 l-71 68 7 -36 c20 -111 27 -130 58 -160 18
-18 45 -33 60 -34 15 -1 27 -6 27 -10 0 -5 13 -23 29 -41 16 -17 43 -48 59
-67 26 -30 32 -33 46 -21 14 12 15 10 9 -20 l-6 -33 29 21 c77 55 198 203 263
323 43 80 50 106 26 96 -8 -3 -21 -3 -29 0 -12 5 -11 13 6 52 11 26 36 92 55
147 19 55 39 105 45 112 21 25 29 13 24 -34 -5 -41 -4 -43 3 -13 16 63 22 130
13 130 -5 0 -135 -18 -288 -41 -294 -43 -535 -72 -542 -65 -2 3 18 7 45 11 26
4 86 17 133 30 173 48 196 54 260 66 36 6 73 16 84 21 10 6 35 10 55 9 56 -1
182 19 224 35 21 8 72 14 117 14 63 0 94 6 145 26 36 15 64 29 61 31 -2 3 -34
-7 -70 -21 -35 -14 -69 -26 -74 -26 -6 0 -25 12 -42 26 -27 23 -34 25 -53 15
-28 -15 -130 -42 -135 -36 -3 3 1 11 8 20 17 21 7 19 -51 -11 -31 -15 -63 -24
-82 -22 -36 3 -38 -1 37 63 l29 25 -21 23 c-31 33 -50 85 -78 211 -31 142 -95
376 -103 376 -3 0 -7 -50 -8 -112z m-748 -691 c-11 -6 -20 -9 -20 -7 0 2 -10
-2 -22 -9 -13 -6 -23 -8 -23 -3 0 14 23 32 42 32 10 0 18 5 18 12 0 9 3 9 13
-1 10 -10 8 -14 -8 -24z m711 -217 c13 0 24 4 24 9 0 19 32 41 60 41 33 0 80
-49 80 -84 0 -35 -28 -66 -59 -66 -28 0 -62 29 -74 63 -4 10 -17 17 -33 17
-18 0 -53 19 -98 54 -114 87 -130 116 -22 37 56 -40 109 -71 122 -71z m-463
123 c-7 -2 -21 -2 -30 0 -10 3 -4 5 12 5 17 0 24 -2 18 -5z m687 -59 c0 -16
-16 -19 -25 -4 -8 13 4 32 16 25 5 -4 9 -13 9 -21z m-610 2 c0 -2 -7 -7 -16
-10 -8 -3 -12 -2 -9 4 6 10 25 14 25 6z m201 -49 c3 -5 12 -34 19 -65 7 -31
20 -65 29 -76 25 -28 158 -116 176 -116 18 0 17 -31 -1 -37 -13 -4 -189 139
-202 164 -5 10 -15 43 -21 73 -9 40 -20 62 -44 83 l-32 29 35 -23 c19 -13 38
-27 41 -32z m-93 -2 c35 -25 45 -40 58 -85 8 -30 18 -62 22 -71 12 -27 268
-229 291 -229 5 0 21 15 35 33 14 17 26 29 26 25 0 -12 -43 -98 -49 -98 -11 0
-60 37 -189 144 -137 112 -134 108 -156 207 -5 24 -56 77 -102 106 -18 12 -18
12 1 5 12 -4 40 -20 63 -37z m-88 31 c0 -2 -9 -6 -20 -9 -11 -3 -18 -1 -14 4
5 9 34 13 34 5z m-215 -56 c3 -5 -1 -10 -10 -10 -9 0 -13 5 -10 10 3 6 8 10
10 10 2 0 7 -4 10 -10z m2 -26 c-3 -3 -12 -4 -19 -1 -8 3 -5 6 6 6 11 1 17 -2
13 -5z m-414 -35 c-13 -13 -33 -4 -32 14 0 9 2 9 6 0 8 -20 26 -15 18 5 -5 14
-4 15 6 5 10 -10 10 -16 2 -24z m-120 -96 c81 -440 80 -378 9 -477 l-33 -47
20 -108 c26 -133 26 -143 4 -139 -13 3 -17 12 -15 30 1 14 -4 68 -13 119 -8
52 -15 99 -15 104 0 6 20 35 45 65 34 42 45 63 45 90 0 32 -51 313 -66 368 -4
12 -2 22 4 22 6 0 13 -12 15 -27z m918 -30 c13 -17 13 -17 -6 -3 -11 8 -22 16
-24 17 -2 2 0 3 6 3 6 0 17 -8 24 -17z m-1012 -148 c12 -66 21 -126 21 -132 0
-23 -16 -14 -18 10 -1 12 -11 75 -22 140 -11 66 -20 124 -19 130 1 29 19 -38
38 -148z m-49 -5 c17 -79 33 -147 36 -151 2 -4 -12 -31 -32 -58 -35 -49 -35
-52 -29 -116 4 -36 10 -65 14 -65 3 0 7 -23 8 -50 3 -44 0 -50 -17 -50 -18 0
-20 7 -20 58 0 32 -5 84 -11 115 -11 54 -10 58 13 89 50 66 50 65 23 220 -26
151 -28 164 -20 156 3 -2 19 -69 35 -148z m-143 68 c-3 -8 -6 -5 -6 6 -1 11 2
17 5 13 3 -3 4 -12 1 -19z m-16 -95 c-27 -33 -29 -38 -15 -57 34 -48 -2 -116
-62 -116 -58 0 -74 14 -74 65 0 59 27 89 77 83 30 -4 38 1 64 33 16 20 30 45
30 55 1 14 3 13 6 -4 3 -14 -6 -35 -26 -59z m-235 30 c-8 -16 -25 -38 -38 -50
-23 -22 -24 -22 -36 -3 -9 16 -9 18 2 14 7 -3 28 11 47 30 40 43 44 44 25 9z
m999 -33 c0 -18 -6 -26 -23 -28 -13 -2 -25 3 -28 12 -10 26 4 48 28 44 17 -2
23 -10 23 -28z m502 -62 c-3 -8 -6 -5 -6 6 -1 11 2 17 5 13 3 -3 4 -12 1 -19z
m-1487 -53 c19 -19 32 -35 29 -35 -3 0 -20 16 -39 35 -19 19 -32 35 -29 35 3
0 20 -16 39 -35z m-50 -39 c0 -20 -25 -37 -44 -30 -19 7 -22 50 -3 57 17 6 47
-11 47 -27z m141 -32 c13 -16 12 -16 -7 -6 -11 6 -27 19 -35 28 -13 16 -12 16
7 6 11 -6 27 -19 35 -28z m1199 -35 c0 -5 -7 -9 -15 -9 -15 0 -20 12 -9 23 8
8 24 -1 24 -14z m-669 -39 c32 -17 18 -70 -18 -70 -22 0 -38 46 -23 65 15 18
16 18 41 5z m-611 -70 c0 -5 -5 -10 -11 -10 -5 0 -7 5 -4 10 3 6 8 10 11 10 2
0 4 -4 4 -10z m553 -97 c-7 -2 -19 -2 -25 0 -7 3 -2 5 12 5 14 0 19 -2 13 -5z
m67 -13 c20 -6 21 -8 5 -8 -11 0 -29 3 -40 8 -25 11 1 11 35 0z m63 -17 c-7
-2 -19 -2 -25 0 -7 3 -2 5 12 5 14 0 19 -2 13 -5z"/>
<path d="M3465 3104 c-48 -28 -65 -50 -65 -81 0 -22 4 -23 65 -23 53 0 63 3
59 15 -4 8 -9 37 -13 64 l-6 50 -40 -25z"/>
<path d="M4098 3007 c-15 -12 -37 -29 -49 -38 -20 -14 -21 -18 -9 -55 7 -21
15 -42 19 -47 6 -6 91 140 91 157 0 13 -26 5 -52 -17z"/>
<path d="M3258 2899 c-21 -11 -38 -24 -38 -29 0 -5 -22 -10 -49 -12 l-49 -3
33 -133 c39 -160 51 -176 117 -169 52 7 68 -7 68 -56 l0 -24 55 16 54 16 -31
24 c-60 47 -86 157 -53 221 18 34 89 60 167 60 26 0 48 3 48 8 0 4 -9 22 -20
40 -36 58 -93 63 -157 12 -14 -11 -32 -20 -40 -20 -19 0 -66 48 -58 60 9 15
-6 11 -47 -11z"/>
<path d="M4106 2767 c-18 -13 -18 -16 -2 -64 17 -51 32 -63 82 -63 12 0 37
-10 56 -23 18 -13 45 -26 58 -30 16 -4 -6 24 -75 93 -55 55 -100 100 -100 100
-1 0 -9 -6 -19 -13z"/>
<path d="M2204 2739 c-41 -20 -57 -65 -50 -138 8 -86 39 -148 89 -174 34 -18
41 -18 75 -6 25 10 42 25 54 49 16 33 16 39 -3 125 -21 93 -35 117 -81 141
-31 16 -54 17 -84 3z"/>
<path d="M1551 2710 c-13 -11 -30 -20 -38 -20 -8 0 -27 -7 -41 -15 -133 -73
-227 -100 -257 -75 -7 6 -16 5 -25 -3 -7 -6 -10 -7 -7 -1 3 6 -1 11 -9 11 -8
0 -13 -6 -10 -13 3 -7 0 -14 -5 -16 -11 -4 24 -182 47 -237 l14 -34 108 7 c59
3 132 9 163 12 l57 7 13 -52 13 -51 21 20 c23 21 81 29 125 15 14 -4 0 6 -30
21 -63 33 -99 80 -127 164 -24 74 -24 203 0 248 20 37 20 38 -12 12z"/>
<path d="M3510 2721 c-51 -10 -60 -18 -60 -52 0 -65 51 -100 113 -80 45 15 63
50 51 99 -8 32 -13 37 -39 39 -16 0 -46 -2 -65 -6z"/>
<path d="M1692 2684 c-20 -9 -42 -60 -42 -96 l0 -34 88 8 c149 14 157 21 99
84 -28 31 -41 37 -83 40 -27 2 -55 1 -62 -2z"/>
<path d="M761 2624 c0 -11 3 -14 6 -6 3 7 2 16 -1 19 -3 4 -6 -2 -5 -13z"/>
<path d="M2762 2619 c-76 -13 -92 -24 -92 -62 0 -67 61 -109 129 -89 61 19 76
42 65 104 -10 60 -14 62 -102 47z"/>
<path d="M3645 2530 c-3 -5 -1 -10 4 -10 6 0 11 5 11 10 0 6 -2 10 -4 10 -3 0
-8 -4 -11 -10z"/>
<path d="M3238 2443 c7 -3 16 -2 19 1 4 3 -2 6 -13 5 -11 0 -14 -3 -6 -6z"/>
<path d="M802 2410 c0 -14 2 -19 5 -12 2 6 2 18 0 25 -3 6 -5 1 -5 -13z"/>
<path d="M1793 2253 c9 -2 23 -2 30 0 6 3 -1 5 -18 5 -16 0 -22 -2 -12 -5z"/>
<path d="M3971 2214 c0 -11 3 -14 6 -6 3 7 2 16 -1 19 -3 4 -6 -2 -5 -13z"/>
<path d="M1523 2213 c9 -2 23 -2 30 0 6 3 -1 5 -18 5 -16 0 -22 -2 -12 -5z"/>
<path d="M1388 2193 c7 -3 16 -2 19 1 4 3 -2 6 -13 5 -11 0 -14 -3 -6 -6z"/>
<path d="M1298 2183 c6 -2 18 -2 25 0 6 3 1 5 -13 5 -14 0 -19 -2 -12 -5z"/>
<path d="M2130 2175 c0 -21 58 -83 94 -102 25 -13 22 -8 -17 27 -26 23 -50 53
-53 66 -7 26 -24 33 -24 9z"/>
</g>
</svg>
